<svg width="32" height="32" viewBox="0 0 32 32" fill="none" xmlns="http://www.w3.org/2000/svg">
<circle cx="16" cy="16" r="16" fill="#F6F6F6"/>
<path fill-rule="evenodd" clip-rule="evenodd" d="M22.0376 16.7462C22.0098 13.9474 24.3203 12.6043 24.4235 12.5378C23.1249 10.6381 21.1016 10.377 20.3807 10.3476C18.659 10.1738 17.0216 11.3619 16.1469 11.3619C15.2746 11.3619 13.9266 10.3737 12.499 10.3999C10.6226 10.4276 8.89267 11.4912 7.92536 13.1718C5.97591 16.5541 7.42673 21.5671 9.32681 24.3097C10.255 25.6528 11.3619 27.1616 12.8156 27.1077C14.215 27.0526 14.7446 26.2012 16.4374 26.2012C18.1298 26.2012 18.6051 27.1077 20.0865 27.0788C21.5928 27.051 22.5471 25.7095 23.4692 24.3619C24.5361 22.8033 24.9735 21.2962 25 21.2187C24.9665 21.2036 22.0628 20.0914 22.0335 16.7474L22.0375 16.7462H22.0376ZM19.255 8.53039C20.0261 7.59486 20.5472 6.2962 20.4048 5C19.2938 5.04529 17.9466 5.7405 17.149 6.67483C16.4329 7.50429 15.8074 8.82619 15.9747 10.0959C17.2155 10.1926 18.4823 9.46552 19.2538 8.53202L19.255 8.53039Z" fill="#2F2F3E"/>
</svg>
