<svg width="32" height="32" viewBox="0 0 32 32" fill="none" xmlns="http://www.w3.org/2000/svg">
<circle cx="16" cy="16" r="16" fill="#FF9421"/>
<path fill-rule="evenodd" clip-rule="evenodd" d="M22.2692 16.7648C23.6102 16.5025 24.6344 15.7034 24.9404 14.0172C25.3616 11.7132 23.5004 10.4336 20.939 9.55348L21.8444 6.43803L19.8123 5.92407L18.9303 8.95856C18.3957 8.82303 17.8467 8.69454 17.3013 8.56781L18.1887 5.51396L16.1565 5L15.2511 8.11369C14.8083 8.00984 14.3745 7.90951 13.9515 7.80214L13.9551 7.79158L11.1508 7.08049L10.5622 9.10465C10.5622 9.10465 12.0705 9.4602 12.0381 9.47956C12.8625 9.68901 13.0011 10.2012 12.9669 10.606L11.9355 14.1545C11.9931 14.1686 12.0651 14.1897 12.1479 14.2214L11.9319 14.1686L10.4866 19.1392C10.3804 19.3716 10.1158 19.7201 9.53977 19.574C9.55957 19.6021 8.06199 19.1991 8.06199 19.1991L7 21.3587L9.64597 22.0276C10.1374 22.1543 10.6198 22.2846 11.0932 22.4078L10.1788 25.5584L12.2109 26.0742L13.1163 22.957C13.6707 23.1083 14.2089 23.2509 14.7363 23.3829L13.8327 26.486L15.8667 27L16.7811 23.8564C20.2515 24.5393 22.8776 24.3422 24.0458 21.4239C24.9872 19.0741 24.0818 17.6906 22.2692 16.7648ZM16.7055 10.8067C17.8521 11.0971 21.5564 11.6692 20.9084 13.9046C20.2839 16.0466 16.7523 14.8832 15.6039 14.591L16.7055 10.8067ZM13.8291 20.6758L15.0423 16.5043C16.4211 16.851 20.849 17.578 20.1363 20.0334C19.4523 22.3884 15.2079 21.0243 13.8291 20.6758Z" fill="#F6F6F6"/>
</svg>
