<svg width="32" height="32" viewBox="0 0 32 32" fill="none" xmlns="http://www.w3.org/2000/svg">
<circle cx="16" cy="16" r="16" fill="#C3A634"/>
<path fill-rule="evenodd" clip-rule="evenodd" d="M12.0975 14.8276H17.2742V17.5347H12.0975V23.2403H15.3627C16.655 23.2403 17.7122 23.0686 18.5354 22.7228C19.3586 22.3782 20.0042 21.9009 20.4734 21.2899C20.9533 20.6544 21.2799 19.9193 21.4286 19.1405C21.6019 18.262 21.6863 17.3687 21.6806 16.4737C21.6863 15.5787 21.6019 14.6853 21.4286 13.8068C21.2801 13.028 20.9534 12.2929 20.4734 11.6575C20.0042 11.0464 19.3574 10.5692 18.5354 10.2246C17.7122 9.87882 16.655 9.70711 15.3627 9.70711H12.0975V14.8288V14.8276ZM8.77837 17.5347H7V14.8288H8.77837V7H16.637C18.089 7 19.3454 7.24868 20.4074 7.7425C21.4694 8.23868 22.3358 8.91487 23.0089 9.77342C23.6809 10.6308 24.1813 11.635 24.5089 12.7849C24.8365 13.9347 24.9997 15.1651 24.9997 16.4737C25.0079 17.7197 24.8424 18.961 24.5077 20.1625C24.1813 21.3112 23.6809 22.3166 23.0077 23.1739C22.3358 24.0325 21.4694 24.7087 20.4074 25.2049C19.3454 25.6999 18.0878 25.9474 16.637 25.9474H8.77837V17.5347Z" fill="white"/>
</svg>
