<svg width="32" height="32" viewBox="0 0 32 32" fill="none" xmlns="http://www.w3.org/2000/svg">
<circle cx="16" cy="16" r="16" fill="#F6F6F6"/>
<path fill-rule="evenodd" clip-rule="evenodd" d="M5.77577 21.215C5.25553 20.3923 5 19.3127 5 18.0824C5 15.8455 5.64571 13.514 6.87363 11.7135C7.96307 10.1167 9.53526 9 11.3385 9C12.3828 9 13.421 9.2939 14.5051 10.1356C15.0765 10.579 15.6661 11.1607 16.3 11.9238C16.8151 11.2621 17.3707 10.6364 17.9684 10.1407C18.8528 9.40738 19.807 9 20.7671 9C22.379 9 23.9145 9.88825 25.0897 11.5542C26.3758 13.3786 27 15.6767 27 18.0483C27 19.4582 26.7078 20.4941 26.2105 21.3125C25.76 22.0545 24.9089 22.7959 23.5063 22.8857C23.4128 22.8917 23.3168 22.8947 23.2183 22.8947C22.2391 22.8947 21.3714 22.6924 20.4121 21.8319C19.6746 21.1714 18.8124 19.998 18.1491 18.9431L16.176 15.8091C16.1198 15.7198 16.0637 15.6317 16.0081 15.545C15.9519 15.6395 15.8951 15.7351 15.8377 15.8318L15.1446 16.9993C13.7523 19.3469 13.3996 19.8815 12.7034 20.764C11.4831 22.3091 10.4411 22.8947 9.06934 22.8947C7.44207 22.8947 6.41306 22.2247 5.77577 21.215ZM7.80164 19.9463C7.56065 19.5753 7.37627 18.962 7.37627 18.1633C7.37627 16.2267 7.95389 14.2101 8.8972 12.8563C9.48093 12.018 10.1643 11.4337 10.9548 11.3007C11.0678 11.2817 11.1829 11.2719 11.3002 11.2719C12.4601 11.2719 13.1869 11.9615 13.7523 12.5326C14.0347 12.818 14.4275 13.2886 14.8843 13.9071L13.9489 15.2738C13.744 15.5728 13.51 15.9243 13.2591 16.301C12.6599 17.2007 11.9654 18.2433 11.3484 19.0551C10.256 20.4919 9.68904 20.6381 9.06934 20.6381C8.58889 20.6381 8.11761 20.4322 7.80164 19.9463ZM17.3797 13.3392C17.7458 13.8558 18.1285 14.4301 18.5316 15.0685L19.0969 15.9649C20.4619 18.1269 21.2383 19.2392 21.6928 19.7637C22.2773 20.4373 22.6866 20.6381 23.2183 20.6381C23.3869 20.6381 23.5397 20.6198 23.678 20.5849C24.646 20.3409 24.9037 19.291 24.9037 18.1109C24.9037 16.1889 24.4325 14.0559 23.3943 12.5319C22.6575 11.4509 21.7027 10.7903 20.6523 10.7903C19.5162 10.7903 18.6019 11.6051 17.5745 13.0578C17.5097 13.1493 17.4448 13.243 17.3797 13.3392Z" fill="#0064E1"/>
</svg>
