<svg width="68" height="17" viewBox="0 0 68 17" fill="none" xmlns="http://www.w3.org/2000/svg">
<g id="White logo - no background 2">
<g id="Group">
<g id="SvgjsG1022">
<path id="Vector" d="M12.1589 9.22341C12.1588 9.22174 12.1586 9.22019 12.1584 9.21851C12.1578 9.21102 12.1571 9.20353 12.1562 9.19616C12.1558 9.19332 12.1553 9.19061 12.1548 9.1879C12.1539 9.1817 12.153 9.1755 12.1517 9.16943C12.1511 9.16607 12.1502 9.16284 12.1494 9.15949C12.1481 9.15406 12.1469 9.14851 12.1455 9.14309C12.1445 9.13934 12.1432 9.13559 12.142 9.13185C12.1406 9.12707 12.1392 9.12216 12.1376 9.11738C12.1362 9.11338 12.1347 9.10951 12.1331 9.1055C12.1314 9.10111 12.1299 9.09659 12.1281 9.0922C12.1264 9.0882 12.1245 9.08432 12.1228 9.08045C12.1208 9.07619 12.119 9.07193 12.117 9.06779C12.115 9.06379 12.1128 9.06004 12.1108 9.05617C12.1086 9.05217 12.1066 9.04803 12.1043 9.04416C12.1021 9.04028 12.0997 9.03667 12.0973 9.03279C12.095 9.02892 12.0927 9.02517 12.0902 9.02143C12.0878 9.01768 12.0851 9.0142 12.0825 9.01058C12.0799 9.00696 12.0775 9.00322 12.0746 8.99973C12.0719 8.99625 12.0691 8.99289 12.0662 8.98953C12.0634 8.98604 12.0605 8.98243 12.0576 8.97894C12.0547 8.97571 12.0516 8.97261 12.0487 8.96938C12.0456 8.96602 12.0425 8.96254 12.0392 8.95931C12.0361 8.95621 12.0328 8.95324 12.0297 8.95027C12.0263 8.94717 12.023 8.94381 12.0196 8.94084C12.0164 8.938 12.0129 8.93529 12.0095 8.93245C12.0059 8.92948 12.0023 8.92638 11.9987 8.92354C11.9952 8.92082 11.9916 8.91837 11.988 8.91579C11.9841 8.91307 11.9803 8.91023 11.9765 8.90752C11.9727 8.90507 11.9688 8.90274 11.9651 8.90042C11.9615 8.89809 11.958 8.89577 11.9542 8.89357C11.9539 8.89332 11.9535 8.89319 11.9531 8.89293C11.9527 8.89267 11.9523 8.89241 11.9519 8.89228L11.4981 8.63283V5.87774C11.4981 5.87399 11.4976 5.87025 11.4976 5.8665C11.4973 5.85798 11.4971 5.84932 11.4963 5.84093C11.4958 5.8346 11.4949 5.8284 11.494 5.82207C11.4931 5.81536 11.4922 5.80851 11.4909 5.80193C11.4896 5.79457 11.4878 5.78733 11.4861 5.7801C11.4847 5.77455 11.4834 5.769 11.4818 5.76344C11.4796 5.75582 11.4772 5.74846 11.4746 5.7411C11.4728 5.73593 11.471 5.73077 11.4689 5.7256C11.4661 5.71863 11.4631 5.71165 11.4599 5.70481C11.4574 5.69939 11.4548 5.69396 11.452 5.68854C11.4489 5.68247 11.4455 5.67653 11.4422 5.67072C11.4387 5.66477 11.4352 5.65883 11.4315 5.65302C11.4282 5.64798 11.4247 5.64321 11.4214 5.6383C11.417 5.6321 11.4125 5.62603 11.4077 5.61996C11.4043 5.6157 11.4007 5.61157 11.3971 5.60743C11.3919 5.60149 11.3868 5.59555 11.3812 5.59C11.3772 5.58587 11.3731 5.58199 11.369 5.57812C11.3635 5.57295 11.3581 5.56791 11.3524 5.56301C11.3473 5.55862 11.3418 5.55448 11.3364 5.55035C11.3314 5.54648 11.3265 5.5426 11.3212 5.53899C11.3142 5.53408 11.3068 5.52956 11.2995 5.52504C11.2962 5.5231 11.2934 5.5209 11.29 5.5191L8.92744 4.16822V3.57879C8.92744 3.56963 8.92705 3.56046 8.92653 3.55129C8.9264 3.54845 8.92589 3.5456 8.92576 3.54276C8.92524 3.53643 8.92472 3.53024 8.92382 3.52404C8.9233 3.52042 8.92253 3.5168 8.92201 3.51306C8.92111 3.50776 8.92046 3.50247 8.91943 3.49717C8.91865 3.49317 8.91749 3.4893 8.91659 3.48542C8.91543 3.48051 8.91439 3.47561 8.9131 3.47083C8.91207 3.46682 8.91078 3.46308 8.90949 3.4592C8.90806 3.45456 8.90677 3.44978 8.90522 3.44513C8.90393 3.44125 8.90225 3.43738 8.90083 3.43363C8.89915 3.42911 8.89747 3.42459 8.89567 3.42007C8.89412 3.4162 8.89231 3.41258 8.8905 3.40884C8.88856 3.40445 8.88663 3.40006 8.88456 3.39579C8.88275 3.39218 8.88068 3.38856 8.87875 3.38495C8.87642 3.38068 8.87436 3.37642 8.8719 3.37216C8.86984 3.36867 8.86764 3.36519 8.86545 3.36183C8.86286 3.3577 8.86041 3.35356 8.85783 3.34956C8.85563 3.3462 8.85305 3.34297 8.85072 3.33961C8.84788 3.33561 8.84517 3.33161 8.8422 3.32773C8.83975 3.3245 8.83703 3.32141 8.83445 3.31818C8.83135 3.31443 8.82838 3.31056 8.82515 3.30694C8.82244 3.30384 8.81947 3.30087 8.81663 3.29777C8.8134 3.29428 8.81017 3.29067 8.80681 3.28731C8.80384 3.28434 8.80074 3.2815 8.79764 3.27866C8.79416 3.27543 8.79067 3.27194 8.78718 3.26884C8.78395 3.266 8.7806 3.26342 8.77737 3.26071C8.77362 3.25761 8.77001 3.25451 8.76626 3.25154C8.7629 3.24895 8.75929 3.2465 8.75567 3.24392C8.7518 3.24108 8.74792 3.23823 8.74405 3.23552C8.74043 3.23307 8.73656 3.23074 8.73281 3.22842C8.7292 3.22609 8.72558 3.22377 8.72183 3.22157C8.72145 3.22132 8.72106 3.22119 8.72067 3.22093C8.72028 3.22067 8.7199 3.22041 8.71951 3.22028L6.36555 1.87419C6.23847 1.80148 6.08246 1.80161 5.95551 1.87419L3.60168 3.21938C3.60116 3.21964 3.60077 3.2199 3.60026 3.22028C3.6 3.22041 3.59961 3.22054 3.59935 3.2208C3.59625 3.22261 3.59341 3.22455 3.59044 3.22635C3.58592 3.22907 3.5814 3.23178 3.57701 3.23475C3.57365 3.23694 3.57043 3.23953 3.56707 3.24185C3.56293 3.24482 3.5588 3.24766 3.5548 3.25063C3.55144 3.25322 3.54821 3.25606 3.54485 3.25877C3.54124 3.26174 3.53749 3.26471 3.53388 3.26781C3.53052 3.27078 3.52729 3.27401 3.52393 3.27711C3.5207 3.28021 3.51735 3.28318 3.51412 3.28641C3.51089 3.28976 3.50779 3.29312 3.50456 3.29661C3.50159 3.29971 3.49862 3.30281 3.49578 3.30604C3.49255 3.30965 3.48958 3.31353 3.48661 3.31727C3.48403 3.3205 3.48131 3.3236 3.47873 3.32683C3.47576 3.3307 3.47292 3.33484 3.47008 3.33884C3.46775 3.34207 3.4653 3.3453 3.4631 3.34866C3.46039 3.35266 3.45794 3.35692 3.45536 3.36105C3.45316 3.36454 3.45096 3.3679 3.4489 3.37138C3.44657 3.37552 3.44438 3.37978 3.44218 3.38404C3.44025 3.38766 3.43818 3.39127 3.43637 3.39502C3.4343 3.39928 3.43237 3.40367 3.43043 3.40793C3.42862 3.41181 3.42681 3.41555 3.42526 3.41943C3.42346 3.42369 3.42191 3.42821 3.42023 3.4326C3.41868 3.4366 3.41713 3.44048 3.41571 3.44461C3.41429 3.44887 3.413 3.45339 3.4117 3.45765C3.41041 3.46192 3.40899 3.46605 3.40783 3.47031C3.40667 3.4747 3.40576 3.47909 3.40473 3.48348C3.4037 3.48788 3.40253 3.49214 3.40163 3.49653C3.40073 3.50105 3.40008 3.5057 3.39931 3.51022C3.39853 3.51461 3.39776 3.51887 3.39711 3.52326C3.39646 3.5283 3.39608 3.53334 3.39556 3.53837C3.39517 3.54238 3.39466 3.54638 3.3944 3.55051C3.39401 3.5571 3.39388 3.56381 3.39375 3.5704C3.39375 3.57298 3.39349 3.57544 3.39349 3.57802V4.16732L1.03101 5.51768C1.02765 5.51961 1.02455 5.52194 1.0212 5.524C1.01409 5.5284 1.00686 5.53279 1.00002 5.53756C0.994592 5.54131 0.989555 5.54531 0.984389 5.54932C0.979094 5.55319 0.973928 5.55719 0.968762 5.56159C0.962951 5.56649 0.957397 5.57179 0.951844 5.57695C0.94784 5.58083 0.943837 5.58457 0.939833 5.58858C0.93428 5.59439 0.928985 5.60033 0.92369 5.60627C0.920203 5.61027 0.916716 5.61441 0.913358 5.61854C0.90858 5.62461 0.903931 5.63081 0.89954 5.63701C0.896053 5.64179 0.892695 5.64656 0.889595 5.65147C0.88585 5.65728 0.882234 5.66322 0.878747 5.66917C0.875389 5.67498 0.872031 5.68092 0.868932 5.68686C0.86622 5.69228 0.863637 5.69771 0.861054 5.70313C0.857954 5.70998 0.854855 5.71682 0.852014 5.72392C0.849947 5.72909 0.848139 5.73426 0.846331 5.73942C0.843748 5.74691 0.841165 5.75427 0.839099 5.76189C0.837549 5.76732 0.836258 5.77287 0.834837 5.77829C0.833029 5.78566 0.83135 5.79289 0.829929 5.80025C0.828638 5.80684 0.827863 5.81342 0.826959 5.82014C0.826055 5.82647 0.825151 5.83292 0.824634 5.83938C0.82386 5.84778 0.823601 5.85604 0.823343 5.86444C0.823214 5.86831 0.822826 5.87218 0.822826 5.87606V8.63205L0.369134 8.89138C0.368875 8.89151 0.368617 8.89177 0.36823 8.89189C0.367713 8.89215 0.367325 8.89241 0.366809 8.89267C0.362289 8.89525 0.358027 8.89809 0.353636 8.90094C0.350666 8.90274 0.347695 8.90455 0.344725 8.90649C0.339946 8.90972 0.335297 8.91307 0.330648 8.91643C0.327936 8.9185 0.325094 8.92031 0.322382 8.92237C0.317862 8.92586 0.313471 8.92961 0.308951 8.93335C0.306497 8.93542 0.303785 8.93748 0.301331 8.93968C0.29707 8.94342 0.292937 8.94743 0.288804 8.95143C0.28635 8.95376 0.283897 8.95595 0.281701 8.95815C0.277827 8.96241 0.273952 8.96667 0.270078 8.97093C0.267882 8.97339 0.265558 8.97571 0.263362 8.97816C0.259617 8.98243 0.25613 8.98695 0.252514 8.99134C0.250448 8.99392 0.248252 8.99637 0.246315 8.99896C0.242957 9.00348 0.239728 9.008 0.2365 9.01265C0.234563 9.01536 0.232496 9.01807 0.230688 9.02078C0.227589 9.02543 0.224747 9.03021 0.221906 9.03486C0.220098 9.0377 0.21829 9.04054 0.216611 9.04351C0.21377 9.04842 0.211316 9.05333 0.208733 9.05824C0.207183 9.06121 0.205504 9.06405 0.203955 9.06715C0.201501 9.07218 0.199176 9.07748 0.196852 9.08264C0.19556 9.08562 0.19401 9.08859 0.192848 9.09156C0.190653 9.09672 0.188845 9.10189 0.186907 9.10718C0.185745 9.11041 0.184454 9.11351 0.183291 9.11674C0.181483 9.12216 0.179933 9.12759 0.178254 9.13314C0.17735 9.13624 0.176188 9.13934 0.175413 9.14257C0.173864 9.14825 0.172572 9.15406 0.171281 9.15987C0.170635 9.16297 0.169731 9.16594 0.169214 9.16891C0.167923 9.17498 0.167019 9.18118 0.166115 9.18738C0.165727 9.19022 0.165082 9.19294 0.164694 9.19578C0.16379 9.20262 0.163144 9.20972 0.162628 9.2167C0.162499 9.21877 0.162111 9.22083 0.161982 9.22303C0.161465 9.23103 0.161207 9.23904 0.161207 9.24718C0.161207 9.24834 0.161078 9.2495 0.161078 9.25066V11.9554C0.161078 12.1035 0.240503 12.2404 0.369004 12.3139L2.72283 13.6606C2.78637 13.6971 2.85715 13.7151 2.92805 13.7151C2.9996 13.7151 3.07127 13.6965 3.13533 13.6593C3.14011 13.6566 3.14463 13.6535 3.14915 13.6507L3.62544 13.3782L5.95538 14.7112C6.02008 14.7483 6.0906 14.7659 6.16021 14.7659C6.24286 14.7659 6.32409 14.741 6.39267 14.6943L8.69368 13.3777L9.1878 13.6604C9.25134 13.6968 9.32211 13.7149 9.39301 13.7149C9.46456 13.7149 9.53623 13.6963 9.60029 13.6591C9.60507 13.6562 9.60972 13.6533 9.61437 13.6503L11.9519 12.3129C12.0806 12.2393 12.1599 12.1025 12.1599 11.9544V9.25105C12.1599 9.24175 12.1596 9.23258 12.1589 9.22341ZM10.9142 9.25092L9.39275 10.1203L7.87153 9.25041L9.39288 8.38086L10.9142 9.25092ZM7.45219 9.96265L8.97974 10.8365V12.5896L7.45219 11.7157V9.96265ZM4.21978 4.29026L5.74732 5.16407V6.91724L4.21978 6.0433V4.29026ZM6.57361 5.16368L8.10115 4.29065V6.04253L6.57361 6.91646V5.16368ZM6.16046 2.7086L7.68181 3.57854L6.16034 4.44795L4.63912 3.57815L6.16046 2.7086ZM3.34106 12.5887V10.8361L4.86861 9.96304V11.7148L3.34106 12.5887ZM2.92779 10.1203L1.40657 9.25041L2.92792 8.38086L4.4494 9.25079L2.92779 10.1203ZM0.987359 9.96265L2.51491 10.8365V12.5895L0.987359 11.7154V9.96265ZM6.15917 13.8758L4.45728 12.902L5.48696 12.3129C5.61559 12.2393 5.69489 12.1025 5.69489 11.9542V9.25105C5.69489 9.24175 5.69463 9.23258 5.69399 9.22354C5.69373 9.22019 5.69321 9.2167 5.69295 9.21334C5.69244 9.20766 5.69205 9.20198 5.69127 9.19629C5.69076 9.19229 5.68998 9.18842 5.68934 9.18441C5.68856 9.17938 5.68779 9.17434 5.68675 9.16943C5.68598 9.16556 5.68495 9.16181 5.68404 9.15794C5.68288 9.15303 5.68185 9.14799 5.68055 9.14309C5.67952 9.13921 5.67823 9.13547 5.67707 9.13172C5.67565 9.12694 5.67423 9.12203 5.67268 9.11726C5.67139 9.11351 5.66984 9.10989 5.66854 9.10615C5.66674 9.1015 5.66519 9.09672 5.66325 9.09207C5.66183 9.08859 5.66015 9.0851 5.65847 9.08161C5.6564 9.07696 5.65434 9.07218 5.65214 9.06766C5.65046 9.06431 5.64866 9.06121 5.64698 9.05785C5.64452 9.0532 5.6422 9.04855 5.63949 9.04403C5.63768 9.04093 5.63574 9.03796 5.63393 9.03499C5.63109 9.03034 5.62838 9.02582 5.62541 9.0213C5.62347 9.01846 5.62141 9.01575 5.61947 9.01303C5.61624 9.00851 5.61314 9.00399 5.60978 8.9996C5.60772 8.99689 5.60552 8.99444 5.60345 8.99185C5.59997 8.98746 5.59648 8.98307 5.59274 8.97881C5.59054 8.97636 5.58821 8.97403 5.58602 8.97158C5.58214 8.96745 5.57827 8.96318 5.57427 8.95905C5.57194 8.95673 5.56949 8.95453 5.56716 8.95234C5.56303 8.94833 5.5589 8.94433 5.55451 8.94045C5.55205 8.93826 5.54947 8.93632 5.54702 8.93425C5.5425 8.93051 5.53811 8.92676 5.53359 8.92328C5.53087 8.92121 5.52816 8.9194 5.52532 8.91734C5.52067 8.91398 5.51615 8.91049 5.51137 8.90739C5.5084 8.90546 5.5053 8.90365 5.50233 8.90171C5.49794 8.899 5.49381 8.89616 5.48929 8.89357C5.4889 8.89332 5.48838 8.89306 5.48787 8.8928C5.48761 8.89267 5.48722 8.89241 5.48696 8.89228L3.133 7.54644C3.00592 7.47373 2.84992 7.47373 2.72296 7.54644L1.64911 8.16015V6.11601L3.39349 5.119V6.28274C3.39349 6.43087 3.47279 6.56777 3.60142 6.64125L5.95525 7.988C6.01879 8.02442 6.08969 8.0425 6.16046 8.0425C6.23201 8.0425 6.30369 8.0239 6.36775 7.9867C6.37265 7.98386 6.37743 7.98076 6.38221 7.97766L8.71951 6.64048C8.84814 6.56686 8.92744 6.4301 8.92744 6.28197V5.11977L10.6718 6.1173V8.16028L9.59809 7.54631C9.47101 7.4736 9.31501 7.4736 9.18805 7.54619L6.83409 8.89164C6.83358 8.89189 6.83319 8.89215 6.83267 8.89254C6.83242 8.89267 6.83203 8.8928 6.83177 8.89306C6.82893 8.89474 6.82609 8.89667 6.82325 8.89848C6.8186 8.90132 6.81382 8.90416 6.8093 8.90713C6.80607 8.90933 6.80297 8.91165 6.79987 8.91385C6.79561 8.91682 6.79122 8.91992 6.78709 8.92302C6.78386 8.92547 6.78076 8.92818 6.77766 8.93064C6.77378 8.93374 6.76978 8.93684 6.76616 8.9402C6.76306 8.94291 6.76009 8.94588 6.75699 8.94872C6.75351 8.95195 6.74989 8.95531 6.7464 8.95866C6.74343 8.96163 6.74059 8.96486 6.73762 8.96796C6.73439 8.97145 6.73104 8.97481 6.72794 8.97829C6.72509 8.98152 6.72238 8.98501 6.71967 8.98837C6.7167 8.99198 6.71373 8.99547 6.71089 8.99909C6.70818 9.00257 6.70585 9.00619 6.70327 9.00968C6.70056 9.01342 6.69784 9.01704 6.69526 9.02091C6.69281 9.02453 6.69061 9.02827 6.68842 9.03202C6.68596 9.03589 6.68351 9.03964 6.68118 9.04364C6.67925 9.04739 6.67731 9.05126 6.67524 9.05514C6.67305 9.05914 6.67085 9.06314 6.66879 9.06715C6.66685 9.07102 6.66517 9.07503 6.66336 9.07903C6.66143 9.08316 6.65949 9.08729 6.65768 9.09156C6.656 9.09556 6.65458 9.09956 6.65316 9.10357C6.65148 9.10796 6.64967 9.11222 6.64825 9.11661C6.64683 9.12061 6.6458 9.12475 6.64451 9.12875C6.64309 9.13327 6.64154 9.13779 6.64037 9.14231C6.63921 9.14657 6.63831 9.15083 6.6374 9.1551C6.63637 9.15962 6.63508 9.16401 6.6343 9.16853C6.6334 9.17331 6.63263 9.17808 6.63185 9.18286C6.63121 9.187 6.6303 9.19113 6.62978 9.19539C6.62901 9.20094 6.62862 9.20663 6.62811 9.21218C6.62785 9.21567 6.62733 9.21915 6.62707 9.22264C6.62656 9.23026 6.62643 9.23801 6.6263 9.24563C6.6263 9.24718 6.62617 9.2486 6.62617 9.25015V11.9549C6.62617 12.103 6.70546 12.2399 6.83409 12.3134L7.86185 12.9014L6.15917 13.8758ZM9.80615 12.5887V10.8361L11.3337 9.96304V11.7148L9.80615 12.5887Z" fill="#E2E8ED"/>
</g>
<g id="SvgjsG1023">
<path id="Vector_2" d="M18.6711 4.64994C20.0236 4.64994 20.8865 5.66433 20.8865 6.91589C20.8865 8.18765 20.0236 9.16165 18.6711 9.16165H17.0157V11.8466H15.8096V4.64992L18.6711 4.64994ZM18.4791 8.13226C19.2865 8.13226 19.7104 7.63767 19.7104 6.90088C19.7104 6.1893 19.2865 5.6695 18.4791 5.6695H17.0155V8.13228L18.4791 8.13226ZM27.06 5.7251H24.2642V7.71852H26.7371V8.78337H24.2642V10.7667H27.06V11.8467H23.0428V4.65005H27.06V5.7251ZM34.3087 4.64994H35.5148V11.8466H34.1623L30.6296 6.35583V11.8466H29.4336V4.64994H30.7709L34.3085 10.1053L34.3087 4.64994ZM39.2154 10.7666H43.0357V11.8466H37.7467V10.8827L41.4913 5.72497H37.7568V4.65002H42.9347V5.61898L39.2154 10.7666ZM49.9715 11.8466L49.4012 10.2468H46.2571L45.6919 11.8466H44.4454L47.0949 4.64994H48.5635L51.213 11.8466H49.9715ZM46.6254 9.21232H49.0378L47.8316 5.81089L46.6254 9.21232ZM56.3367 11.9425C54.2676 11.9425 52.703 10.5294 52.703 8.24339C52.703 5.96734 54.2674 4.54919 56.3367 4.54919C57.8507 4.54919 59.0922 5.3163 59.6322 6.60318L58.5068 7.03216C58.1333 6.16919 57.3157 5.67461 56.3367 5.67461C54.9741 5.67461 53.9093 6.62339 53.9093 8.24336C53.9093 9.87344 54.9741 10.8172 56.3367 10.8172C57.3158 10.8172 58.1333 10.3276 58.5068 9.46464L59.6322 9.89362C59.0922 11.1805 57.8507 11.9425 56.3367 11.9425ZM65.9521 11.8466L63.5448 8.65214H62.9594V11.8466H61.7532V4.64994H62.9594V7.58215H63.5347L65.9016 4.64994H67.3803L64.5745 8.08678L67.4966 11.8466H65.9521Z" fill="#E2E8ED"/>
</g>
</g>
</g>
</svg>
